<mxfile host="app.diagrams.net" modified="2024-04-26T01:28:20.209Z" agent="Mozilla/5.0 (Windows NT 10.0; Win64; x64) AppleWebKit/537.36 (KHTML, like Gecko) Chrome/124.0.0.0 Safari/537.36 Edg/124.0.0.0" etag="VL0nlnhLQei920lz_NvM" version="24.3.0" type="github">
  <diagram name="第 1 页" id="0G7jBZ04Df3SLAwByqEv">
    <mxGraphModel dx="1002" dy="535" grid="1" gridSize="10" guides="1" tooltips="1" connect="1" arrows="1" fold="1" page="1" pageScale="1" pageWidth="827" pageHeight="1169" math="0" shadow="0">
      <root>
        <mxCell id="0" />
        <mxCell id="1" parent="0" />
        <mxCell id="hM3rlB9nKsHv3tSzr7f3-7" style="edgeStyle=orthogonalEdgeStyle;rounded=0;orthogonalLoop=1;jettySize=auto;html=1;exitX=0.5;exitY=1;exitDx=0;exitDy=0;" edge="1" parent="1" source="hM3rlB9nKsHv3tSzr7f3-1" target="hM3rlB9nKsHv3tSzr7f3-3">
          <mxGeometry relative="1" as="geometry" />
        </mxCell>
        <mxCell id="hM3rlB9nKsHv3tSzr7f3-8" style="edgeStyle=orthogonalEdgeStyle;rounded=0;orthogonalLoop=1;jettySize=auto;html=1;exitX=0.5;exitY=1;exitDx=0;exitDy=0;entryX=0.5;entryY=0;entryDx=0;entryDy=0;" edge="1" parent="1" source="hM3rlB9nKsHv3tSzr7f3-1" target="hM3rlB9nKsHv3tSzr7f3-4">
          <mxGeometry relative="1" as="geometry" />
        </mxCell>
        <mxCell id="hM3rlB9nKsHv3tSzr7f3-9" style="edgeStyle=orthogonalEdgeStyle;rounded=0;orthogonalLoop=1;jettySize=auto;html=1;exitX=0.5;exitY=1;exitDx=0;exitDy=0;" edge="1" parent="1" source="hM3rlB9nKsHv3tSzr7f3-1" target="hM3rlB9nKsHv3tSzr7f3-5">
          <mxGeometry relative="1" as="geometry" />
        </mxCell>
        <mxCell id="hM3rlB9nKsHv3tSzr7f3-10" style="edgeStyle=orthogonalEdgeStyle;rounded=0;orthogonalLoop=1;jettySize=auto;html=1;exitX=0.5;exitY=1;exitDx=0;exitDy=0;entryX=0.5;entryY=0;entryDx=0;entryDy=0;" edge="1" parent="1" source="hM3rlB9nKsHv3tSzr7f3-1" target="hM3rlB9nKsHv3tSzr7f3-6">
          <mxGeometry relative="1" as="geometry" />
        </mxCell>
        <mxCell id="hM3rlB9nKsHv3tSzr7f3-1" value="社区管理和题库管理模块" style="rounded=0;whiteSpace=wrap;html=1;" vertex="1" parent="1">
          <mxGeometry x="230" y="100" width="160" height="60" as="geometry" />
        </mxCell>
        <mxCell id="hM3rlB9nKsHv3tSzr7f3-3" value="发布评论" style="whiteSpace=wrap;html=1;" vertex="1" parent="1">
          <mxGeometry x="160" y="200" width="50" height="200" as="geometry" />
        </mxCell>
        <mxCell id="hM3rlB9nKsHv3tSzr7f3-4" value="创建题目" style="whiteSpace=wrap;html=1;" vertex="1" parent="1">
          <mxGeometry x="240" y="200" width="50" height="200" as="geometry" />
        </mxCell>
        <mxCell id="hM3rlB9nKsHv3tSzr7f3-5" value="创建题解" style="whiteSpace=wrap;html=1;" vertex="1" parent="1">
          <mxGeometry x="320" y="200" width="50" height="200" as="geometry" />
        </mxCell>
        <mxCell id="hM3rlB9nKsHv3tSzr7f3-6" value="创建测试样例" style="whiteSpace=wrap;html=1;" vertex="1" parent="1">
          <mxGeometry x="400" y="200" width="50" height="200" as="geometry" />
        </mxCell>
      </root>
    </mxGraphModel>
  </diagram>
</mxfile>
